<?xml version="1.0" encoding="utf-8"?>
<!-- Generator: Adobe Illustrator 16.0.0, SVG Export Plug-In . SVG Version: 6.00 Build 0)  -->
<!DOCTYPE svg PUBLIC "-//W3C//DTD SVG 1.1//EN" "http://www.w3.org/Graphics/SVG/1.1/DTD/svg11.dtd">
<svg version="1.1" id="Layer_1" xmlns="http://www.w3.org/2000/svg" xmlns:xlink="http://www.w3.org/1999/xlink" x="0px" y="0px"
	 width="2500px" height="2500px" viewBox="0 0 2500 2500" enable-background="new 0 0 2500 2500" xml:space="preserve">
<circle fill="#807D7D" cx="1250" cy="1250" r="1250"/>
<path fill="#FFFFFF" d="M2071.313,879.918C2000.41,830.328,1924.59,777.459,1850.41,725c-1.641-1.229-3.279-2.459-5.328-3.688
	c-8.197-6.146-17.623-12.704-29.099-16.394l-0.819-0.41c-198.361-47.95-400-97.131-595.082-144.672
	c-177.049-43.032-353.688-86.064-530.737-129.099c-4.509-1.229-9.017-2.459-13.935-3.688c-15.983-4.508-34.427-9.426-54.1-6.967
	c-5.736,0.819-10.654,2.869-15.163,5.737l-4.919,4.099c-7.786,7.377-11.885,16.804-13.935,22.131l-1.229,3.279v18.853l0.819,2.868
	c111.885,313.524,226.64,631.559,337.295,939.345c85.246,236.886,173.771,482.377,260.245,723.36
	c5.328,16.394,20.492,27.049,39.345,28.688h4.1c17.623,0,33.196-8.606,40.982-22.541l324.591-473.36
	c79.099-115.164,158.196-230.738,237.296-345.901c32.377-47.132,64.754-94.673,97.131-141.804
	c53.277-77.869,108.196-158.196,162.705-236.476l2.869-4.1v-4.918C2094.672,925,2095.082,895.492,2071.313,879.918
	 M1690.984,1052.459c-76.23,39.754-154.1,80.737-232.379,121.312c45.492-48.771,91.395-97.95,136.887-146.722
	c56.967-61.476,116.394-125,174.59-187.295l1.229-1.229c4.918-6.559,11.065-12.705,17.623-19.263
	c4.51-4.509,9.428-9.017,13.936-14.345c30.328,20.901,61.064,42.213,90.574,63.114c21.311,15.164,43.031,30.328,65.162,45.492
	C1868.442,959.426,1778.279,1006.558,1690.984,1052.459 M1495.082,1032.787c-58.605,63.524-119.262,128.688-179.508,193.032
	c-116.805-141.804-236.065-285.655-351.641-424.59c-52.459-63.115-105.328-126.641-157.787-189.755l-0.408-0.409
	c-11.887-13.524-23.361-28.278-34.836-42.214c-7.378-9.427-15.164-18.442-22.951-27.868c47.541,12.295,95.491,23.771,142.623,34.836
	c41.394,9.836,84.426,20.082,126.639,30.737c237.705,57.786,475.82,115.573,713.525,173.36
	C1651.64,864.344,1572.131,950,1495.082,1032.787 M1288.936,1831.558c4.509-43.032,9.427-87.296,13.523-130.737
	c3.688-34.837,7.377-70.492,11.065-104.509c5.737-54.509,11.886-111.064,16.804-166.394l1.229-9.836
	c4.1-35.246,8.196-71.723,10.655-108.197c4.509-2.459,9.427-4.918,14.755-6.967c6.147-2.869,12.295-5.328,18.442-9.018
	c94.672-49.59,189.344-99.181,284.426-148.359c94.673-49.182,191.804-100,288.115-150.41
	c-87.705,127.049-175.82,255.328-261.065,380.328c-73.36,106.967-148.771,217.213-223.771,325.818
	c-29.509,43.442-60.246,87.705-89.345,130.328c-32.787,47.541-66.395,96.313-99.182,145.082
	C1278.688,1929.508,1283.605,1879.918,1288.936,1831.558 M717.623,637.705c-5.328-14.754-11.065-29.918-15.983-44.263
	c110.655,133.605,222.132,268.032,330.737,398.36c56.146,67.622,112.295,134.836,168.442,202.868
	c11.064,12.705,22.132,26.229,32.786,39.345c13.936,16.804,27.869,34.427,43.033,51.229c-4.919,42.213-9.017,84.836-13.523,125.818
	c-2.869,28.688-5.738,57.377-9.018,86.477v0.41c-1.229,18.441-3.688,36.885-5.738,54.918c-2.867,25-9.426,81.558-9.426,81.558
	l-0.41,2.868c-7.377,82.787-16.394,166.395-25,247.541c-3.688,33.605-6.967,68.033-10.654,102.459
	c-2.051-6.146-4.51-12.295-6.559-18.032c-6.146-16.394-12.295-33.606-18.033-50.41l-43.853-121.722
	C995.492,1410.655,856.558,1024.59,717.623,637.705"/>
</svg>
